# Blender v3.4.1 OBJ File: 'water.blend'
# www.blender.org
mtllib water.mtl
o Mball.005_Mball
v 0.529500 2.647500 -2.703423
v -0.590584 2.647500 -2.647500
v -0.529500 0.776752 -2.647500
v 0.529500 0.785704 -2.647500
v 0.529500 1.588500 -3.233931
v -1.088307 1.588500 -2.647500
v 0.529500 2.588894 -1.588500
v 0.992658 1.588500 -1.588500
v 0.529500 -1.608565 -0.529500
v 0.529500 -1.588500 0.578733
v 0.529500 -0.578733 1.588500
v -0.578733 -0.529500 1.588500
v -0.578733 0.529500 1.588500
v -0.786613 1.588500 1.588500
v -0.889083 1.588500 2.647500
v -1.588500 -0.529500 0.578733
v -1.588500 0.529500 0.578733
v -1.608565 0.529500 -0.529500
v -0.578733 1.588500 -0.529500
v -0.578733 1.588500 0.529500
v -1.588500 -0.578733 -0.529500
v -0.578733 -0.529500 -1.588500
v -0.578733 0.529500 -1.588500
v -0.578733 -1.588500 0.529500
v -0.578733 -1.588500 -0.529500
v 0.529500 -0.578733 -1.588500
v 1.608565 -0.529500 -0.529500
v 1.608565 0.529500 -0.529500
v 1.588500 -0.529500 0.578733
v 1.588500 0.529500 0.578733
v 0.578733 0.529500 -1.588500
v -0.529500 2.598575 -1.588500
v 0.529500 1.608565 -0.529500
v 0.529500 1.608565 0.529500
v -0.529500 2.455333 1.588500
v -1.009530 1.588500 -1.588500
v 1.046218 1.588500 1.588500
v 0.529500 0.529500 1.608565
v -0.529500 2.585756 2.647500
v 1.146850 1.588500 2.647500
v 0.529500 2.647500 1.603367
v 0.529500 2.647500 2.813480
v 0.529500 0.832899 2.647500
v 0.529500 1.588500 3.238370
vn -0.4650 0.8176 0.3397
vn 0.5307 0.7988 0.2832
vn 0.4577 0.7306 -0.5067
vn -0.4891 0.7464 -0.4512
vn -0.8532 -0.0334 -0.5204
vn 0.4271 -0.0109 -0.9041
vn 0.4816 -0.6768 -0.5568
vn -0.4356 -0.7239 -0.5350
vn -0.8282 -0.1608 0.5369
vn 0.1785 -0.1543 0.9718
vn 0.3454 0.7641 0.5448
vn -0.5670 0.7015 0.4317
vn 0.3313 -0.8748 0.3535
vn 0.3344 -0.8818 -0.3325
vn 0.8789 -0.3434 -0.3311
vn 0.8710 -0.3400 0.3546
vn -0.3546 -0.8717 0.3383
vn 0.3261 -0.3552 0.8761
vn -0.3515 -0.3375 0.8732
vn -0.9814 0.1918 -0.0023
vn -0.6541 -0.2074 0.7274
vn -0.9163 0.2758 0.2903
vn -0.8746 -0.3345 0.3510
vn -0.5755 0.8092 -0.1181
vn -0.4671 0.8362 0.2873
vn -0.9306 0.2588 -0.2588
vn -0.5697 -0.4403 -0.6939
vn -0.3524 -0.3358 -0.8736
vn -0.8761 -0.3515 -0.3300
vn -0.3533 -0.8742 -0.3332
vn 0.3313 -0.3577 -0.8731
vn 0.9279 0.2677 -0.2595
vn 0.9246 0.2587 0.2796
vn 0.6827 -0.3067 -0.6633
vn 0.5384 0.8195 0.1963
vn 0.4323 0.8502 -0.3004
vn 0.4149 0.8480 -0.3298
vn -0.5870 0.7380 -0.3329
vn -0.9862 0.1646 0.0191
vn 0.9836 0.1671 -0.0672
vn 0.9867 0.1602 -0.0287
vn 0.4631 -0.4301 0.7749
vn 0.9425 -0.0563 0.3293
vn 0.2865 -0.7922 0.5388
usemtl None
s 1
f 32//1 7//2 1//3 2//4
f 6//5 5//6 4//7 3//8
f 15//9 44//10 42//11 39//12
f 10//13 9//14 27//15 29//16
f 24//17 10//13 11//18 12//19
f 14//20 13//21 15//9
f 12//19 13//21 17//22 16//23
f 20//24 19//25 18//26 17//22
f 18//26 23//27 22//28 21//29
f 21//29 25//30 24//17 16//23
f 26//31 9//14 25//30 22//28
f 17//22 18//26 21//29 16//23
f 25//30 9//14 10//13 24//17
f 24//17 12//19 16//23
f 27//15 28//32 30//33 29//16
f 2//4 1//3 5//6 6//5
f 4//7 31//34 23//27 3//8
f 23//27 31//34 26//31 22//28
f 33//35 7//2 32//1 19//25
f 34//36 33//35 19//25 20//24
f 41//37 34//36 20//24 35//38
f 36//39 23//27 18//26
f 19//25 36//39 18//26
f 26//31 31//34 28//32 27//15
f 31//34 8//40 33//35 28//32
f 28//32 33//35 34//36 30//33
f 8//40 31//34 4//7
f 5//6 8//40 4//7
f 33//35 8//40 7//2
f 26//31 27//15 9//14
f 2//4 6//5 36//39 32//1
f 23//27 36//39 6//5 3//8
f 32//1 36//39 19//25
f 10//13 29//16 11//18
f 8//40 5//6 1//3 7//2
f 37//41 38//42 30//33
f 34//36 37//41 30//33
f 30//33 38//42 11//18 29//16
f 37//41 34//36 41//37
f 13//21 14//20 20//24 17//22
f 11//18 38//42 13//21 12//19
f 42//11 40//43 37//41 41//37
f 41//37 39//12 42//11
f 38//42 37//41 40//43 43//44
f 40//43 42//11 44//10
f 40//43 44//10 43//44
f 20//24 14//20 35//38
f 41//37 35//38 39//12
f 35//38 14//20 15//9 39//12
f 13//21 38//42 43//44 15//9
f 43//44 44//10 15//9
f 21//29 22//28 25//30
